<mxfile host="app.diagrams.net" modified="2021-11-17T14:20:19.274Z" agent="5.0 (X11; Linux x86_64) AppleWebKit/537.36 (KHTML, like Gecko) Chrome/96.0.4664.45 Safari/537.36" etag="jhzEO5ekK6Fkxx3l4N8w" version="15.7.4" type="github">
  <diagram id="tS0CGx92xkzZ_2vOI0jc" name="Page-1">
    <mxGraphModel dx="1437" dy="825" grid="1" gridSize="10" guides="1" tooltips="1" connect="1" arrows="1" fold="1" page="1" pageScale="1" pageWidth="850" pageHeight="1100" math="0" shadow="0">
      <root>
        <mxCell id="0" />
        <mxCell id="1" parent="0" />
        <mxCell id="UIDWpFpECs-vzPdy6dzs-2" value="Cancel booking online" style="ellipse;whiteSpace=wrap;html=1;" vertex="1" parent="1">
          <mxGeometry x="220" y="260" width="100" height="40" as="geometry" />
        </mxCell>
        <mxCell id="UIDWpFpECs-vzPdy6dzs-3" value="Traveller" style="shape=umlActor;verticalLabelPosition=bottom;verticalAlign=top;html=1;outlineConnect=0;" vertex="1" parent="1">
          <mxGeometry x="70" y="299" width="30" height="60" as="geometry" />
        </mxCell>
        <mxCell id="UIDWpFpECs-vzPdy6dzs-4" value="Travel Agent" style="shape=umlActor;verticalLabelPosition=bottom;verticalAlign=top;html=1;outlineConnect=0;" vertex="1" parent="1">
          <mxGeometry x="70" y="406.5" width="30" height="60" as="geometry" />
        </mxCell>
        <mxCell id="UIDWpFpECs-vzPdy6dzs-5" value="Counter Incharge" style="shape=umlActor;verticalLabelPosition=bottom;verticalAlign=top;html=1;outlineConnect=0;" vertex="1" parent="1">
          <mxGeometry x="70" y="530" width="30" height="60" as="geometry" />
        </mxCell>
        <mxCell id="UIDWpFpECs-vzPdy6dzs-6" value="Admin" style="shape=umlActor;verticalLabelPosition=bottom;verticalAlign=top;html=1;outlineConnect=0;" vertex="1" parent="1">
          <mxGeometry x="1130" y="346" width="30" height="60" as="geometry" />
        </mxCell>
        <mxCell id="UIDWpFpECs-vzPdy6dzs-7" value="Book ticket online" style="ellipse;whiteSpace=wrap;html=1;" vertex="1" parent="1">
          <mxGeometry x="220" y="199" width="100" height="40" as="geometry" />
        </mxCell>
        <mxCell id="UIDWpFpECs-vzPdy6dzs-8" value="Book via agent" style="ellipse;whiteSpace=wrap;html=1;" vertex="1" parent="1">
          <mxGeometry x="220" y="319" width="100" height="40" as="geometry" />
        </mxCell>
        <mxCell id="UIDWpFpECs-vzPdy6dzs-9" value="Cancel ticket via agent" style="ellipse;whiteSpace=wrap;html=1;" vertex="1" parent="1">
          <mxGeometry x="229" y="380" width="100" height="40" as="geometry" />
        </mxCell>
        <mxCell id="UIDWpFpECs-vzPdy6dzs-10" value="Cancel ticket at counter" style="ellipse;whiteSpace=wrap;html=1;" vertex="1" parent="1">
          <mxGeometry x="250" y="450" width="100" height="40" as="geometry" />
        </mxCell>
        <mxCell id="UIDWpFpECs-vzPdy6dzs-11" value="Book at counter" style="ellipse;whiteSpace=wrap;html=1;" vertex="1" parent="1">
          <mxGeometry x="240" y="520" width="100" height="40" as="geometry" />
        </mxCell>
        <mxCell id="UIDWpFpECs-vzPdy6dzs-12" value="Online Enquiry" style="ellipse;whiteSpace=wrap;html=1;" vertex="1" parent="1">
          <mxGeometry x="423" y="199" width="100" height="40" as="geometry" />
        </mxCell>
        <mxCell id="UIDWpFpECs-vzPdy6dzs-13" value="Fill details" style="ellipse;whiteSpace=wrap;html=1;" vertex="1" parent="1">
          <mxGeometry x="410" y="309" width="100" height="40" as="geometry" />
        </mxCell>
        <mxCell id="UIDWpFpECs-vzPdy6dzs-14" value="Book Ticket" style="ellipse;whiteSpace=wrap;html=1;" vertex="1" parent="1">
          <mxGeometry x="570" y="190" width="100" height="40" as="geometry" />
        </mxCell>
        <mxCell id="UIDWpFpECs-vzPdy6dzs-15" value="Make Payment" style="ellipse;whiteSpace=wrap;html=1;" vertex="1" parent="1">
          <mxGeometry x="640" y="289" width="100" height="40" as="geometry" />
        </mxCell>
        <mxCell id="UIDWpFpECs-vzPdy6dzs-16" value="Cancel ticket" style="ellipse;whiteSpace=wrap;html=1;" vertex="1" parent="1">
          <mxGeometry x="570" y="552" width="100" height="40" as="geometry" />
        </mxCell>
        <mxCell id="UIDWpFpECs-vzPdy6dzs-17" value="Receive money on cancellations" style="ellipse;whiteSpace=wrap;html=1;" vertex="1" parent="1">
          <mxGeometry x="520" y="359.5" width="174" height="47" as="geometry" />
        </mxCell>
        <mxCell id="UIDWpFpECs-vzPdy6dzs-18" value="" style="endArrow=none;html=1;rounded=0;exitX=0.5;exitY=0.5;exitDx=0;exitDy=0;exitPerimeter=0;entryX=0;entryY=0.5;entryDx=0;entryDy=0;" edge="1" parent="1" source="UIDWpFpECs-vzPdy6dzs-3" target="UIDWpFpECs-vzPdy6dzs-7">
          <mxGeometry width="50" height="50" relative="1" as="geometry">
            <mxPoint x="420" y="410" as="sourcePoint" />
            <mxPoint x="470" y="360" as="targetPoint" />
          </mxGeometry>
        </mxCell>
        <mxCell id="UIDWpFpECs-vzPdy6dzs-19" value="" style="endArrow=none;html=1;rounded=0;entryX=0;entryY=0.5;entryDx=0;entryDy=0;exitX=0.5;exitY=0.5;exitDx=0;exitDy=0;exitPerimeter=0;" edge="1" parent="1" source="UIDWpFpECs-vzPdy6dzs-3" target="UIDWpFpECs-vzPdy6dzs-2">
          <mxGeometry width="50" height="50" relative="1" as="geometry">
            <mxPoint x="180" y="317" as="sourcePoint" />
            <mxPoint x="235" y="236" as="targetPoint" />
          </mxGeometry>
        </mxCell>
        <mxCell id="UIDWpFpECs-vzPdy6dzs-20" value="" style="endArrow=none;html=1;rounded=0;exitX=0.5;exitY=0.5;exitDx=0;exitDy=0;exitPerimeter=0;entryX=0;entryY=0.5;entryDx=0;entryDy=0;" edge="1" parent="1" source="UIDWpFpECs-vzPdy6dzs-3" target="UIDWpFpECs-vzPdy6dzs-8">
          <mxGeometry width="50" height="50" relative="1" as="geometry">
            <mxPoint x="196" y="349" as="sourcePoint" />
            <mxPoint x="251" y="268" as="targetPoint" />
          </mxGeometry>
        </mxCell>
        <mxCell id="UIDWpFpECs-vzPdy6dzs-21" value="" style="endArrow=none;html=1;rounded=0;entryX=0;entryY=0;entryDx=0;entryDy=0;exitX=0.5;exitY=0.5;exitDx=0;exitDy=0;exitPerimeter=0;" edge="1" parent="1" source="UIDWpFpECs-vzPdy6dzs-3" target="UIDWpFpECs-vzPdy6dzs-9">
          <mxGeometry width="50" height="50" relative="1" as="geometry">
            <mxPoint x="170" y="300" as="sourcePoint" />
            <mxPoint x="238" y="325" as="targetPoint" />
          </mxGeometry>
        </mxCell>
        <mxCell id="UIDWpFpECs-vzPdy6dzs-22" value="" style="endArrow=none;html=1;rounded=0;exitX=0.5;exitY=0.5;exitDx=0;exitDy=0;exitPerimeter=0;entryX=0;entryY=0.5;entryDx=0;entryDy=0;" edge="1" parent="1" source="UIDWpFpECs-vzPdy6dzs-3" target="UIDWpFpECs-vzPdy6dzs-10">
          <mxGeometry width="50" height="50" relative="1" as="geometry">
            <mxPoint x="175" y="315" as="sourcePoint" />
            <mxPoint x="230" y="234" as="targetPoint" />
          </mxGeometry>
        </mxCell>
        <mxCell id="UIDWpFpECs-vzPdy6dzs-24" value="" style="endArrow=none;html=1;rounded=0;exitX=0.5;exitY=0.5;exitDx=0;exitDy=0;exitPerimeter=0;entryX=0;entryY=0.5;entryDx=0;entryDy=0;" edge="1" parent="1" source="UIDWpFpECs-vzPdy6dzs-3" target="UIDWpFpECs-vzPdy6dzs-11">
          <mxGeometry width="50" height="50" relative="1" as="geometry">
            <mxPoint x="171" y="430" as="sourcePoint" />
            <mxPoint x="226" y="349" as="targetPoint" />
          </mxGeometry>
        </mxCell>
        <mxCell id="UIDWpFpECs-vzPdy6dzs-27" value="" style="endArrow=none;html=1;rounded=0;exitX=0.5;exitY=0.5;exitDx=0;exitDy=0;exitPerimeter=0;" edge="1" parent="1" source="UIDWpFpECs-vzPdy6dzs-4" target="UIDWpFpECs-vzPdy6dzs-8">
          <mxGeometry width="50" height="50" relative="1" as="geometry">
            <mxPoint x="420" y="410" as="sourcePoint" />
            <mxPoint x="470" y="360" as="targetPoint" />
          </mxGeometry>
        </mxCell>
        <mxCell id="UIDWpFpECs-vzPdy6dzs-28" value="" style="endArrow=none;html=1;rounded=0;entryX=0.09;entryY=0.825;entryDx=0;entryDy=0;entryPerimeter=0;exitX=0.5;exitY=0.5;exitDx=0;exitDy=0;exitPerimeter=0;" edge="1" parent="1" source="UIDWpFpECs-vzPdy6dzs-4" target="UIDWpFpECs-vzPdy6dzs-9">
          <mxGeometry width="50" height="50" relative="1" as="geometry">
            <mxPoint x="93" y="497.94" as="sourcePoint" />
            <mxPoint x="251.91324159539317" y="394.0021500916618" as="targetPoint" />
          </mxGeometry>
        </mxCell>
        <mxCell id="UIDWpFpECs-vzPdy6dzs-29" value="" style="endArrow=none;html=1;rounded=0;entryX=0;entryY=0.5;entryDx=0;entryDy=0;exitX=0.5;exitY=0.5;exitDx=0;exitDy=0;exitPerimeter=0;" edge="1" parent="1" source="UIDWpFpECs-vzPdy6dzs-5" target="UIDWpFpECs-vzPdy6dzs-10">
          <mxGeometry width="50" height="50" relative="1" as="geometry">
            <mxPoint x="420" y="470" as="sourcePoint" />
            <mxPoint x="470" y="420" as="targetPoint" />
          </mxGeometry>
        </mxCell>
        <mxCell id="UIDWpFpECs-vzPdy6dzs-30" value="" style="endArrow=none;html=1;rounded=0;entryX=0.04;entryY=0.725;entryDx=0;entryDy=0;entryPerimeter=0;exitX=0.5;exitY=0.5;exitDx=0;exitDy=0;exitPerimeter=0;" edge="1" parent="1" source="UIDWpFpECs-vzPdy6dzs-5" target="UIDWpFpECs-vzPdy6dzs-11">
          <mxGeometry width="50" height="50" relative="1" as="geometry">
            <mxPoint x="111" y="621" as="sourcePoint" />
            <mxPoint x="266" y="501" as="targetPoint" />
          </mxGeometry>
        </mxCell>
        <mxCell id="UIDWpFpECs-vzPdy6dzs-33" value="`" style="endArrow=classic;dashed=1;html=1;strokeWidth=1;rounded=0;endFill=1;" edge="1" parent="1" source="UIDWpFpECs-vzPdy6dzs-7" target="UIDWpFpECs-vzPdy6dzs-12">
          <mxGeometry width="50" height="50" relative="1" as="geometry">
            <mxPoint x="420" y="410" as="sourcePoint" />
            <mxPoint x="470" y="360" as="targetPoint" />
          </mxGeometry>
        </mxCell>
        <mxCell id="UIDWpFpECs-vzPdy6dzs-34" value="" style="endArrow=classic;dashed=1;html=1;strokeWidth=1;rounded=0;endFill=1;" edge="1" parent="1" source="UIDWpFpECs-vzPdy6dzs-2">
          <mxGeometry width="50" height="50" relative="1" as="geometry">
            <mxPoint x="320" y="255" as="sourcePoint" />
            <mxPoint x="610" y="550" as="targetPoint" />
          </mxGeometry>
        </mxCell>
        <mxCell id="UIDWpFpECs-vzPdy6dzs-35" value="" style="endArrow=classic;dashed=1;html=1;strokeWidth=1;rounded=0;exitX=0.92;exitY=0.825;exitDx=0;exitDy=0;exitPerimeter=0;endFill=1;" edge="1" parent="1" source="UIDWpFpECs-vzPdy6dzs-7" target="UIDWpFpECs-vzPdy6dzs-13">
          <mxGeometry width="50" height="50" relative="1" as="geometry">
            <mxPoint x="317" y="288" as="sourcePoint" />
            <mxPoint x="420" y="288" as="targetPoint" />
          </mxGeometry>
        </mxCell>
        <mxCell id="UIDWpFpECs-vzPdy6dzs-36" value="" style="endArrow=classic;dashed=1;html=1;strokeWidth=1;rounded=0;exitX=1;exitY=0.5;exitDx=0;exitDy=0;endFill=1;" edge="1" parent="1" source="UIDWpFpECs-vzPdy6dzs-8" target="UIDWpFpECs-vzPdy6dzs-13">
          <mxGeometry width="50" height="50" relative="1" as="geometry">
            <mxPoint x="360" y="340" as="sourcePoint" />
            <mxPoint x="463" y="340" as="targetPoint" />
          </mxGeometry>
        </mxCell>
        <mxCell id="UIDWpFpECs-vzPdy6dzs-37" value="" style="endArrow=classic;dashed=1;html=1;strokeWidth=1;rounded=0;entryX=0;entryY=0;entryDx=0;entryDy=0;endFill=1;" edge="1" parent="1" source="UIDWpFpECs-vzPdy6dzs-9" target="UIDWpFpECs-vzPdy6dzs-16">
          <mxGeometry width="50" height="50" relative="1" as="geometry">
            <mxPoint x="354" y="382" as="sourcePoint" />
            <mxPoint x="457" y="382" as="targetPoint" />
          </mxGeometry>
        </mxCell>
        <mxCell id="UIDWpFpECs-vzPdy6dzs-39" value="" style="endArrow=classic;dashed=1;html=1;strokeWidth=1;rounded=0;entryX=0;entryY=0.5;entryDx=0;entryDy=0;endFill=1;" edge="1" parent="1" source="UIDWpFpECs-vzPdy6dzs-10" target="UIDWpFpECs-vzPdy6dzs-16">
          <mxGeometry width="50" height="50" relative="1" as="geometry">
            <mxPoint x="291.9996180699114" y="441.00245913762654" as="sourcePoint" />
            <mxPoint x="566.9646609406726" y="583.067864376269" as="targetPoint" />
          </mxGeometry>
        </mxCell>
        <mxCell id="UIDWpFpECs-vzPdy6dzs-40" value="" style="endArrow=classic;dashed=1;html=1;strokeWidth=1;rounded=0;entryX=0.5;entryY=1;entryDx=0;entryDy=0;endFill=1;" edge="1" parent="1" source="UIDWpFpECs-vzPdy6dzs-11" target="UIDWpFpECs-vzPdy6dzs-13">
          <mxGeometry width="50" height="50" relative="1" as="geometry">
            <mxPoint x="258.00289304751504" y="365.0020033024384" as="sourcePoint" />
            <mxPoint x="575.51" y="617.14" as="targetPoint" />
          </mxGeometry>
        </mxCell>
        <mxCell id="UIDWpFpECs-vzPdy6dzs-41" value="" style="endArrow=classic;dashed=1;html=1;strokeWidth=1;rounded=0;entryX=0;entryY=1;entryDx=0;entryDy=0;endFill=1;" edge="1" parent="1" source="UIDWpFpECs-vzPdy6dzs-13" target="UIDWpFpECs-vzPdy6dzs-14">
          <mxGeometry width="50" height="50" relative="1" as="geometry">
            <mxPoint x="546" y="325" as="sourcePoint" />
            <mxPoint x="652.2065626240781" y="376.5640557667625" as="targetPoint" />
          </mxGeometry>
        </mxCell>
        <mxCell id="UIDWpFpECs-vzPdy6dzs-42" value="" style="endArrow=none;dashed=1;html=1;strokeWidth=1;rounded=0;entryX=0.34;entryY=0.95;entryDx=0;entryDy=0;entryPerimeter=0;startArrow=classic;startFill=1;" edge="1" parent="1" source="UIDWpFpECs-vzPdy6dzs-15" target="UIDWpFpECs-vzPdy6dzs-14">
          <mxGeometry width="50" height="50" relative="1" as="geometry">
            <mxPoint x="658" y="300" as="sourcePoint" />
            <mxPoint x="648.3846609406726" y="286.0021356237312" as="targetPoint" />
          </mxGeometry>
        </mxCell>
        <mxCell id="UIDWpFpECs-vzPdy6dzs-45" value="Update Database" style="ellipse;whiteSpace=wrap;html=1;" vertex="1" parent="1">
          <mxGeometry x="719" y="426.5" width="100" height="40" as="geometry" />
        </mxCell>
        <mxCell id="UIDWpFpECs-vzPdy6dzs-46" value="" style="endArrow=none;dashed=1;html=1;strokeWidth=1;rounded=0;exitX=0.5;exitY=0;exitDx=0;exitDy=0;startArrow=classic;startFill=1;" edge="1" parent="1" source="UIDWpFpECs-vzPdy6dzs-45" target="UIDWpFpECs-vzPdy6dzs-15">
          <mxGeometry width="50" height="50" relative="1" as="geometry">
            <mxPoint x="657.5812977001985" y="366.9279699345425" as="sourcePoint" />
            <mxPoint x="583" y="304" as="targetPoint" />
          </mxGeometry>
        </mxCell>
        <mxCell id="UIDWpFpECs-vzPdy6dzs-48" value="" style="endArrow=classic;dashed=1;html=1;strokeWidth=1;rounded=0;endFill=1;" edge="1" parent="1" source="UIDWpFpECs-vzPdy6dzs-16" target="UIDWpFpECs-vzPdy6dzs-45">
          <mxGeometry width="50" height="50" relative="1" as="geometry">
            <mxPoint x="700" y="540" as="sourcePoint" />
            <mxPoint x="750" y="490" as="targetPoint" />
          </mxGeometry>
        </mxCell>
        <mxCell id="UIDWpFpECs-vzPdy6dzs-49" value="" style="endArrow=classic;dashed=1;html=1;strokeWidth=1;rounded=0;endFill=1;" edge="1" parent="1" source="UIDWpFpECs-vzPdy6dzs-16" target="UIDWpFpECs-vzPdy6dzs-17">
          <mxGeometry width="50" height="50" relative="1" as="geometry">
            <mxPoint x="582.9994669841444" y="522.3598576946902" as="sourcePoint" />
            <mxPoint x="667.5906276279909" y="455.9981229380382" as="targetPoint" />
          </mxGeometry>
        </mxCell>
        <mxCell id="UIDWpFpECs-vzPdy6dzs-50" value="&amp;lt;&amp;lt;include&amp;gt;&amp;gt;" style="text;html=1;align=center;verticalAlign=middle;resizable=0;points=[];autosize=1;strokeColor=none;fillColor=none;" vertex="1" parent="1">
          <mxGeometry x="320" y="180" width="80" height="20" as="geometry" />
        </mxCell>
        <mxCell id="UIDWpFpECs-vzPdy6dzs-51" value="&amp;lt;&amp;lt;include&amp;gt;&amp;gt;" style="text;html=1;align=center;verticalAlign=middle;resizable=0;points=[];autosize=1;strokeColor=none;fillColor=none;" vertex="1" parent="1">
          <mxGeometry x="348" y="242" width="80" height="20" as="geometry" />
        </mxCell>
        <mxCell id="UIDWpFpECs-vzPdy6dzs-52" value="&amp;lt;&amp;lt;include&amp;gt;&amp;gt;" style="text;html=1;align=center;verticalAlign=middle;resizable=0;points=[];autosize=1;strokeColor=none;fillColor=none;" vertex="1" parent="1">
          <mxGeometry x="305" y="300" width="80" height="20" as="geometry" />
        </mxCell>
        <mxCell id="UIDWpFpECs-vzPdy6dzs-53" value="&amp;lt;&amp;lt;include&amp;gt;&amp;gt;" style="text;html=1;align=center;verticalAlign=middle;resizable=0;points=[];autosize=1;strokeColor=none;fillColor=none;" vertex="1" parent="1">
          <mxGeometry x="410" y="460" width="80" height="20" as="geometry" />
        </mxCell>
        <mxCell id="UIDWpFpECs-vzPdy6dzs-54" value="&amp;lt;&amp;lt;include&amp;gt;&amp;gt;" style="text;html=1;align=center;verticalAlign=middle;resizable=0;points=[];autosize=1;strokeColor=none;fillColor=none;" vertex="1" parent="1">
          <mxGeometry x="420" y="540" width="80" height="20" as="geometry" />
        </mxCell>
        <mxCell id="UIDWpFpECs-vzPdy6dzs-55" value="&amp;lt;&amp;lt;include&amp;gt;&amp;gt;" style="text;html=1;align=center;verticalAlign=middle;resizable=0;points=[];autosize=1;strokeColor=none;fillColor=none;" vertex="1" parent="1">
          <mxGeometry x="459" y="417" width="80" height="20" as="geometry" />
        </mxCell>
        <mxCell id="UIDWpFpECs-vzPdy6dzs-56" value="&amp;lt;&amp;lt;include&amp;gt;&amp;gt;" style="text;html=1;align=center;verticalAlign=middle;resizable=0;points=[];autosize=1;strokeColor=none;fillColor=none;" vertex="1" parent="1">
          <mxGeometry x="594" y="446.5" width="80" height="20" as="geometry" />
        </mxCell>
        <mxCell id="UIDWpFpECs-vzPdy6dzs-57" value="&amp;lt;&amp;lt;include&amp;gt;&amp;gt;" style="text;html=1;align=center;verticalAlign=middle;resizable=0;points=[];autosize=1;strokeColor=none;fillColor=none;" vertex="1" parent="1">
          <mxGeometry x="720" y="349" width="80" height="20" as="geometry" />
        </mxCell>
        <mxCell id="UIDWpFpECs-vzPdy6dzs-58" value="&amp;lt;&amp;lt;include&amp;gt;&amp;gt;" style="text;html=1;align=center;verticalAlign=middle;resizable=0;points=[];autosize=1;strokeColor=none;fillColor=none;" vertex="1" parent="1">
          <mxGeometry x="680" y="500" width="80" height="20" as="geometry" />
        </mxCell>
        <mxCell id="UIDWpFpECs-vzPdy6dzs-61" value="Add/Update Tour" style="ellipse;whiteSpace=wrap;html=1;" vertex="1" parent="1">
          <mxGeometry x="921" y="289" width="90" height="38" as="geometry" />
        </mxCell>
        <mxCell id="UIDWpFpECs-vzPdy6dzs-62" value="Remove Tour" style="ellipse;whiteSpace=wrap;html=1;" vertex="1" parent="1">
          <mxGeometry x="920" y="348" width="90" height="38" as="geometry" />
        </mxCell>
        <mxCell id="UIDWpFpECs-vzPdy6dzs-63" value="Add/Update Tour Guide" style="ellipse;whiteSpace=wrap;html=1;" vertex="1" parent="1">
          <mxGeometry x="920" y="406" width="90" height="38" as="geometry" />
        </mxCell>
        <mxCell id="UIDWpFpECs-vzPdy6dzs-65" value="Remove Tour Guide" style="ellipse;whiteSpace=wrap;html=1;" vertex="1" parent="1">
          <mxGeometry x="941" y="476" width="90" height="38" as="geometry" />
        </mxCell>
        <mxCell id="UIDWpFpECs-vzPdy6dzs-66" value="Update Tour record" style="ellipse;whiteSpace=wrap;html=1;" vertex="1" parent="1">
          <mxGeometry x="760" y="316" width="110" height="35" as="geometry" />
        </mxCell>
        <mxCell id="UIDWpFpECs-vzPdy6dzs-67" value="Update Tour Guide record&amp;nbsp;" style="ellipse;whiteSpace=wrap;html=1;" vertex="1" parent="1">
          <mxGeometry x="770" y="466" width="120" height="34" as="geometry" />
        </mxCell>
        <mxCell id="UIDWpFpECs-vzPdy6dzs-68" value="" style="endArrow=none;html=1;strokeWidth=1;rounded=0;exitX=1;exitY=0.5;exitDx=0;exitDy=0;entryX=0.5;entryY=0.5;entryDx=0;entryDy=0;entryPerimeter=0;" edge="1" parent="1" source="UIDWpFpECs-vzPdy6dzs-61">
          <mxGeometry width="50" height="50" relative="1" as="geometry">
            <mxPoint x="1071" y="504" as="sourcePoint" />
            <mxPoint x="1145" y="373" as="targetPoint" />
          </mxGeometry>
        </mxCell>
        <mxCell id="UIDWpFpECs-vzPdy6dzs-71" value="" style="endArrow=none;html=1;strokeWidth=1;rounded=0;entryX=0.5;entryY=0.5;entryDx=0;entryDy=0;entryPerimeter=0;" edge="1" parent="1" source="UIDWpFpECs-vzPdy6dzs-62">
          <mxGeometry width="50" height="50" relative="1" as="geometry">
            <mxPoint x="1019" y="353" as="sourcePoint" />
            <mxPoint x="1145" y="373" as="targetPoint" />
          </mxGeometry>
        </mxCell>
        <mxCell id="UIDWpFpECs-vzPdy6dzs-72" value="" style="endArrow=none;html=1;strokeWidth=1;rounded=0;entryX=0.5;entryY=0.5;entryDx=0;entryDy=0;entryPerimeter=0;" edge="1" parent="1" source="UIDWpFpECs-vzPdy6dzs-63">
          <mxGeometry width="50" height="50" relative="1" as="geometry">
            <mxPoint x="1043" y="394" as="sourcePoint" />
            <mxPoint x="1145" y="373" as="targetPoint" />
          </mxGeometry>
        </mxCell>
        <mxCell id="UIDWpFpECs-vzPdy6dzs-73" value="" style="endArrow=none;html=1;strokeWidth=1;rounded=0;entryX=0.5;entryY=0.5;entryDx=0;entryDy=0;entryPerimeter=0;" edge="1" parent="1" source="UIDWpFpECs-vzPdy6dzs-65">
          <mxGeometry width="50" height="50" relative="1" as="geometry">
            <mxPoint x="1041" y="442" as="sourcePoint" />
            <mxPoint x="1145" y="373" as="targetPoint" />
          </mxGeometry>
        </mxCell>
        <mxCell id="UIDWpFpECs-vzPdy6dzs-74" value="" style="endArrow=none;dashed=1;html=1;strokeWidth=1;rounded=0;" edge="1" parent="1" source="UIDWpFpECs-vzPdy6dzs-66" target="UIDWpFpECs-vzPdy6dzs-61">
          <mxGeometry width="50" height="50" relative="1" as="geometry">
            <mxPoint x="837.004411210999" y="383.85238664954306" as="sourcePoint" />
            <mxPoint x="935.31" y="367" as="targetPoint" />
          </mxGeometry>
        </mxCell>
        <mxCell id="UIDWpFpECs-vzPdy6dzs-75" value="" style="endArrow=none;dashed=1;html=1;strokeWidth=1;rounded=0;exitX=1;exitY=0;exitDx=0;exitDy=0;" edge="1" parent="1" source="UIDWpFpECs-vzPdy6dzs-67" target="UIDWpFpECs-vzPdy6dzs-63">
          <mxGeometry width="50" height="50" relative="1" as="geometry">
            <mxPoint x="892.9961948645466" y="450.83830859128386" as="sourcePoint" />
            <mxPoint x="933.6948389992854" y="441.99763790098007" as="targetPoint" />
          </mxGeometry>
        </mxCell>
        <mxCell id="UIDWpFpECs-vzPdy6dzs-76" value="" style="endArrow=none;dashed=1;html=1;strokeWidth=1;rounded=0;exitX=1.022;exitY=0.684;exitDx=0;exitDy=0;exitPerimeter=0;" edge="1" parent="1" source="UIDWpFpECs-vzPdy6dzs-67" target="UIDWpFpECs-vzPdy6dzs-65">
          <mxGeometry width="50" height="50" relative="1" as="geometry">
            <mxPoint x="907.9961948645466" y="545.8383085912839" as="sourcePoint" />
            <mxPoint x="948.6948389992854" y="536.9976379009801" as="targetPoint" />
          </mxGeometry>
        </mxCell>
        <mxCell id="UIDWpFpECs-vzPdy6dzs-78" value="" style="endArrow=none;dashed=1;html=1;strokeWidth=1;rounded=0;" edge="1" parent="1" source="UIDWpFpECs-vzPdy6dzs-66" target="UIDWpFpECs-vzPdy6dzs-62">
          <mxGeometry width="50" height="50" relative="1" as="geometry">
            <mxPoint x="886.9961948645466" y="391.83830859128386" as="sourcePoint" />
            <mxPoint x="927.6948389992854" y="382.99763790098007" as="targetPoint" />
          </mxGeometry>
        </mxCell>
        <mxCell id="UIDWpFpECs-vzPdy6dzs-79" value="&amp;lt;&amp;lt;extend&amp;gt;&amp;gt;" style="text;html=1;align=center;verticalAlign=middle;resizable=0;points=[];autosize=1;strokeColor=none;fillColor=none;" vertex="1" parent="1">
          <mxGeometry x="860" y="294" width="80" height="20" as="geometry" />
        </mxCell>
        <mxCell id="UIDWpFpECs-vzPdy6dzs-80" value="&amp;lt;&amp;lt;extend&amp;gt;&amp;gt;" style="text;html=1;align=center;verticalAlign=middle;resizable=0;points=[];autosize=1;strokeColor=none;fillColor=none;" vertex="1" parent="1">
          <mxGeometry x="851" y="351" width="80" height="20" as="geometry" />
        </mxCell>
        <mxCell id="UIDWpFpECs-vzPdy6dzs-81" value="&amp;lt;&amp;lt;extend&amp;gt;&amp;gt;" style="text;html=1;align=center;verticalAlign=middle;resizable=0;points=[];autosize=1;strokeColor=none;fillColor=none;" vertex="1" parent="1">
          <mxGeometry x="860" y="434" width="80" height="20" as="geometry" />
        </mxCell>
        <mxCell id="UIDWpFpECs-vzPdy6dzs-82" value="&amp;lt;&amp;lt;extend&amp;gt;&amp;gt;" style="text;html=1;align=center;verticalAlign=middle;resizable=0;points=[];autosize=1;strokeColor=none;fillColor=none;" vertex="1" parent="1">
          <mxGeometry x="870" y="494" width="80" height="20" as="geometry" />
        </mxCell>
        <mxCell id="UIDWpFpECs-vzPdy6dzs-86" value="" style="rounded=0;whiteSpace=wrap;html=1;strokeWidth=1;fillColor=none;" vertex="1" parent="1">
          <mxGeometry x="140" y="170" width="970" height="470" as="geometry" />
        </mxCell>
      </root>
    </mxGraphModel>
  </diagram>
</mxfile>
